<svg width="25" height="32" viewBox="0 0 25 32" xmlns="http://www.w3.org/2000/svg" xmlns:xlink="http://www.w3.org/1999/xlink"><title>Page 1</title><desc>Created using Figma</desc><use xlink:href="#a" transform="translate(1 4.001)" fill="#F00"/><use xlink:href="#b" transform="translate(11.188 10.001)" fill="#F00"/><use xlink:href="#c" transform="translate(1 10.001)" fill="#F00"/><use xlink:href="#d" transform="translate(9.25 1)" fill="#F00"/><use xlink:href="#e" transform="translate(1 10.001)" fill="#F00"/><use xlink:href="#f" transform="translate(12.25 14.125)" fill="#F00"/><use xlink:href="#g" transform="translate(6.999 14.125)" fill="#F00"/><use xlink:href="#h" transform="translate(16.751 14.125)" fill="#F00"/><defs><path id="a" d="M21.5 3.75a1 1 0 1 0 2 0h-2zm-22.5 0a1 1 0 0 0 2 0h-2zm24.5 0A4.75 4.75 0 0 0 18.75-1v2a2.75 2.75 0 0 1 2.75 2.75h2zM18.75-1h-15v2h15v-2zm-15 0A4.75 4.75 0 0 0-1 3.75h2A2.75 2.75 0 0 1 3.75 1v-2z"/><path id="b" d="M0 20a1 1 0 1 0 0 2v-2zm10.062-2.75l.99.136.002-.007-.992-.13zM13.304.13a1 1 0 0 0-1.984-.26l1.984.26zM0 22h6.312v-2H0v2zm6.312 0c2.72 0 4.399-2.13 4.74-4.614l-1.98-.273c-.251 1.822-1.338 2.886-2.76 2.886v2zm4.742-4.621l2.25-17.25-1.984-.258L9.07 17.12l1.984.259z"/><path id="c" d="M0-1a1 1 0 1 0 0 2v-2zm22.5 2a1 1 0 1 0 0-2v2zM0 1h22.5v-2H0v2z"/><path id="d" d="M6 1a1 1 0 0 0 0-2v2zM0-1a1 1 0 1 0 0 2v-2zm6 0H0v2h6v-2z"/><path id="e" d="M10.188 22a1 1 0 0 0 0-2v2zm-7.937-4.75l-.992.129.001.006.99-.136zM.99-.13A1 1 0 0 0-.991.13L.992-.13zM10.189 20H6.001v2h4.187v-2zm-4.187 0c-1.423 0-2.509-1.065-2.76-2.887l-1.98.273c.341 2.484 2.02 4.613 4.74 4.613v-2zm-2.759-2.88L.992-.13-.992.13 1.26 17.378l1.983-.26z"/><path id="f" d="M1 0a1 1 0 1 0-2 0h2zm-2 12.75a1 1 0 1 0 2 0h-2zM-1 0v12.75h2V0h-2z"/><path id="g" d="M.998-.059A1 1 0 1 0-.998.06L.998-.06zM-.248 12.81a1 1 0 1 0 1.996-.118l-1.996.118zM-.998.059l.75 12.75 1.996-.118-.75-12.75L-.998.06z"/><path id="h" d="M1.748.059A1 1 0 1 0-.248-.06l1.996.12zM-.998 12.69a1 1 0 0 0 1.996.118l-1.996-.118zm.75-12.75l-.75 12.75 1.996.118.75-12.75L-.248-.06z"/></defs></svg>