<svg width="31" height="31" viewBox="0 0 31 31" xmlns="http://www.w3.org/2000/svg" xmlns:xlink="http://www.w3.org/1999/xlink"><title>Page 1</title><desc>Created using Figma</desc><use xlink:href="#a" transform="translate(1 1.429)"/><defs><path id="a" d="M14.286 0l.939-.344a1 1 0 0 0-1.878 0l.939.344zm3.784 10.317l-.939.345a1 1 0 0 0 .882.653l.057-.998zm10.501.596l.65.76a1 1 0 0 0-.593-1.759l-.057.999zm-8.163 6.972l-.65-.76a1 1 0 0 0-.32 1.006l.97-.246zm2.706 10.686l-.562.827a1 1 0 0 0 1.532-1.072l-.97.245zm-8.828-6.007l.562-.827a1 1 0 0 0-1.125 0l.563.827zm-8.83 6.007l-.969-.245a1 1 0 0 0 1.532 1.072l-.563-.827zm2.708-10.686l.969.246a1 1 0 0 0-.32-1.006l-.65.76zM0 10.913l-.057-.999a1 1 0 0 0-.592 1.76L0 10.912zm10.501-.596l.057.998a1 1 0 0 0 .882-.653l-.939-.345zM13.347.344l3.784 10.318 1.878-.69L15.225-.343l-1.878.688zm4.666 10.972l10.502.595.113-1.997-10.501-.595-.114 1.996zm9.909-1.164l-8.164 6.973 1.3 1.52 8.163-6.972-1.299-1.52zm-8.483 7.979l2.706 10.686 1.939-.491-2.707-10.686-1.938.49zm4.238 9.614l-8.829-6.008-1.125 1.653 8.829 6.008 1.125-1.653zm-9.954-6.008l-8.83 6.008 1.126 1.653 8.83-6.008-1.126-1.653zm-7.297 7.08l2.707-10.686-1.939-.492-2.707 10.687 1.939.491zm2.387-11.692L.649 10.152l-1.298 1.521 8.163 6.972 1.299-1.52zM.057 11.91l10.501-.595-.113-1.997-10.502.595.114 1.997zm11.383-1.25L15.225.345l-1.878-.688L9.563 9.973l1.877.688z"/></defs></svg>